<svg id="visual" viewBox="0 0 900 450" width="900" height="450" xmlns="http://www.w3.org/2000/svg" xmlns:xlink="http://www.w3.org/1999/xlink" version="1.1"><rect x="0" y="0" width="900" height="450" fill="#FFFFFF"></rect><path d="M0 371L21.5 358.3C43 345.7 86 320.3 128.8 310.3C171.7 300.3 214.3 305.7 257.2 311C300 316.3 343 321.7 385.8 328.3C428.7 335 471.3 343 514.2 347.5C557 352 600 353 642.8 340.7C685.7 328.3 728.3 302.7 771.2 295.3C814 288 857 299 878.5 304.5L900 310L900 0L878.5 0C857 0 814 0 771.2 0C728.3 0 685.7 0 642.8 0C600 0 557 0 514.2 0C471.3 0 428.7 0 385.8 0C343 0 300 0 257.2 0C214.3 0 171.7 0 128.8 0C86 0 43 0 21.5 0L0 0Z" fill="#ffffff"></path><path d="M0 278L21.5 264.2C43 250.3 86 222.7 128.8 223.7C171.7 224.7 214.3 254.3 257.2 253.8C300 253.3 343 222.7 385.8 209.2C428.7 195.7 471.3 199.3 514.2 205C557 210.7 600 218.3 642.8 216.7C685.7 215 728.3 204 771.2 202.5C814 201 857 209 878.5 213L900 217L900 0L878.5 0C857 0 814 0 771.2 0C728.3 0 685.7 0 642.8 0C600 0 557 0 514.2 0C471.3 0 428.7 0 385.8 0C343 0 300 0 257.2 0C214.3 0 171.7 0 128.8 0C86 0 43 0 21.5 0L0 0Z" fill="#d9b5ff"></path><path d="M0 209L21.5 200.7C43 192.3 86 175.7 128.8 165.5C171.7 155.3 214.3 151.7 257.2 144.7C300 137.7 343 127.3 385.8 137.7C428.7 148 471.3 179 514.2 186.2C557 193.3 600 176.7 642.8 170.8C685.7 165 728.3 170 771.2 178.8C814 187.7 857 200.3 878.5 206.7L900 213L900 0L878.5 0C857 0 814 0 771.2 0C728.3 0 685.7 0 642.8 0C600 0 557 0 514.2 0C471.3 0 428.7 0 385.8 0C343 0 300 0 257.2 0C214.3 0 171.7 0 128.8 0C86 0 43 0 21.5 0L0 0Z" fill="#aa6cff"></path><path d="M0 48L21.5 57C43 66 86 84 128.8 94.2C171.7 104.3 214.3 106.7 257.2 98.7C300 90.7 343 72.3 385.8 75C428.7 77.7 471.3 101.3 514.2 102.2C557 103 600 81 642.8 67.8C685.7 54.7 728.3 50.3 771.2 55C814 59.7 857 73.3 878.5 80.2L900 87L900 0L878.5 0C857 0 814 0 771.2 0C728.3 0 685.7 0 642.8 0C600 0 557 0 514.2 0C471.3 0 428.7 0 385.8 0C343 0 300 0 257.2 0C214.3 0 171.7 0 128.8 0C86 0 43 0 21.5 0L0 0Z" fill="#6600ff"></path></svg>