<svg id="visual" viewBox="0 0 900 450" width="900" height="450" xmlns="http://www.w3.org/2000/svg" xmlns:xlink="http://www.w3.org/1999/xlink" version="1.1"><rect x="0" y="0" width="900" height="450" fill="#FFFFFF"></rect><path d="M0 183L15 183.7C30 184.3 60 185.7 90 187.5C120 189.3 150 191.7 180 194.3C210 197 240 200 270 192.3C300 184.7 330 166.3 360 156.8C390 147.3 420 146.7 450 145.2C480 143.7 510 141.3 540 152C570 162.7 600 186.3 630 198.3C660 210.3 690 210.7 720 201.3C750 192 780 173 810 168.7C840 164.3 870 174.7 885 179.8L900 185L900 451L885 451C870 451 840 451 810 451C780 451 750 451 720 451C690 451 660 451 630 451C600 451 570 451 540 451C510 451 480 451 450 451C420 451 390 451 360 451C330 451 300 451 270 451C240 451 210 451 180 451C150 451 120 451 90 451C60 451 30 451 15 451L0 451Z" fill="#ffffff"></path><path d="M0 261L15 251.5C30 242 60 223 90 210.2C120 197.3 150 190.7 180 199.3C210 208 240 232 270 238.7C300 245.3 330 234.7 360 224.3C390 214 420 204 450 209.5C480 215 510 236 540 247.7C570 259.3 600 261.7 630 251.2C660 240.7 690 217.3 720 207.8C750 198.3 780 202.7 810 210.8C840 219 870 231 885 237L900 243L900 451L885 451C870 451 840 451 810 451C780 451 750 451 720 451C690 451 660 451 630 451C600 451 570 451 540 451C510 451 480 451 450 451C420 451 390 451 360 451C330 451 300 451 270 451C240 451 210 451 180 451C150 451 120 451 90 451C60 451 30 451 15 451L0 451Z" fill="#e9d3ff"></path><path d="M0 274L15 277.3C30 280.7 60 287.3 90 285.8C120 284.3 150 274.7 180 265C210 255.3 240 245.7 270 250.3C300 255 330 274 360 281.5C390 289 420 285 450 280.8C480 276.7 510 272.3 540 272.5C570 272.7 600 277.3 630 280.8C660 284.3 690 286.7 720 285.5C750 284.3 780 279.7 810 270C840 260.3 870 245.7 885 238.3L900 231L900 451L885 451C870 451 840 451 810 451C780 451 750 451 720 451C690 451 660 451 630 451C600 451 570 451 540 451C510 451 480 451 450 451C420 451 390 451 360 451C330 451 300 451 270 451C240 451 210 451 180 451C150 451 120 451 90 451C60 451 30 451 15 451L0 451Z" fill="#d1a7ff"></path><path d="M0 290L15 298.2C30 306.3 60 322.7 90 329.3C120 336 150 333 180 328C210 323 240 316 270 308.5C300 301 330 293 360 292.3C390 291.7 420 298.3 450 300.3C480 302.3 510 299.7 540 300.3C570 301 600 305 630 312.2C660 319.3 690 329.7 720 331.7C750 333.7 780 327.3 810 324.5C840 321.7 870 322.3 885 322.7L900 323L900 451L885 451C870 451 840 451 810 451C780 451 750 451 720 451C690 451 660 451 630 451C600 451 570 451 540 451C510 451 480 451 450 451C420 451 390 451 360 451C330 451 300 451 270 451C240 451 210 451 180 451C150 451 120 451 90 451C60 451 30 451 15 451L0 451Z" fill="#b57bff"></path><path d="M0 362L15 359.3C30 356.7 60 351.3 90 354.3C120 357.3 150 368.7 180 374.7C210 380.7 240 381.3 270 373.7C300 366 330 350 360 344.5C390 339 420 344 450 343.5C480 343 510 337 540 338.5C570 340 600 349 630 352.2C660 355.3 690 352.7 720 356C750 359.3 780 368.7 810 373.5C840 378.3 870 378.7 885 378.8L900 379L900 451L885 451C870 451 840 451 810 451C780 451 750 451 720 451C690 451 660 451 630 451C600 451 570 451 540 451C510 451 480 451 450 451C420 451 390 451 360 451C330 451 300 451 270 451C240 451 210 451 180 451C150 451 120 451 90 451C60 451 30 451 15 451L0 451Z" fill="#934cff"></path><path d="M0 377L15 380.3C30 383.7 60 390.3 90 391C120 391.7 150 386.3 180 385.8C210 385.3 240 389.7 270 394.8C300 400 330 406 360 410C390 414 420 416 450 413.8C480 411.7 510 405.3 540 399.7C570 394 600 389 630 390.3C660 391.7 690 399.3 720 404.5C750 409.7 780 412.3 810 409.3C840 406.3 870 397.7 885 393.3L900 389L900 451L885 451C870 451 840 451 810 451C780 451 750 451 720 451C690 451 660 451 630 451C600 451 570 451 540 451C510 451 480 451 450 451C420 451 390 451 360 451C330 451 300 451 270 451C240 451 210 451 180 451C150 451 120 451 90 451C60 451 30 451 15 451L0 451Z" fill="#6600ff"></path></svg>