<svg id="visual" viewBox="0 0 900 675" width="900" height="675" xmlns="http://www.w3.org/2000/svg" xmlns:xlink="http://www.w3.org/1999/xlink" version="1.1"><rect x="0" y="0" width="900" height="675" fill="#FFFFFF"></rect><defs><linearGradient id="grad1_0" x1="25%" y1="100%" x2="100%" y2="0%"><stop offset="23.333333333333336%" stop-color="#ffffff" stop-opacity="1"></stop><stop offset="76.66666666666666%" stop-color="#ffffff" stop-opacity="1"></stop></linearGradient></defs><defs><linearGradient id="grad2_0" x1="0%" y1="100%" x2="75%" y2="0%"><stop offset="23.333333333333336%" stop-color="#ffffff" stop-opacity="1"></stop><stop offset="76.66666666666666%" stop-color="#ffffff" stop-opacity="1"></stop></linearGradient></defs><g transform="translate(900, 675)"><path d="M-421.9 0C-419.5 -40.2 -417.1 -80.5 -390.2 -104.6C-363.4 -128.6 -312.2 -136.5 -300.5 -173.5C-288.9 -210.5 -316.8 -276.5 -298.3 -298.3C-279.8 -320.1 -214.7 -297.8 -176 -304.8C-137.3 -311.9 -124.9 -348.4 -99.9 -372.8C-75 -397.3 -37.5 -409.6 0 -421.9L0 0Z" fill="#6600FF"></path></g><g transform="translate(0, 0)"><path d="M421.9 0C402.5 36.2 383.1 72.4 353.5 94.7C323.9 117 284 125.4 279.7 161.5C275.4 197.6 306.7 261.5 298.3 298.3C289.9 335.1 241.9 344.9 202 349.9C162.1 354.8 130.4 354.9 98.1 366.1C65.8 377.3 32.9 399.6 0 421.9L0 0Z" fill="#6600FF"></path></g></svg>