<svg id="visual" viewBox="0 0 900 600" width="900" height="600" xmlns="http://www.w3.org/2000/svg" xmlns:xlink="http://www.w3.org/1999/xlink" version="1.1"><path d="M0 103L15 100C30 97 60 91 90 105C120 119 150 153 180 175C210 197 240 207 270 199C300 191 330 165 360 151C390 137 420 135 450 128C480 121 510 109 540 108C570 107 600 117 630 131C660 145 690 163 720 162C750 161 780 141 810 136C840 131 870 141 885 146L900 151L900 0L885 0C870 0 840 0 810 0C780 0 750 0 720 0C690 0 660 0 630 0C600 0 570 0 540 0C510 0 480 0 450 0C420 0 390 0 360 0C330 0 300 0 270 0C240 0 210 0 180 0C150 0 120 0 90 0C60 0 30 0 15 0L0 0Z" fill="#ffffff"></path><path d="M0 481L15 447C30 413 60 345 90 318C120 291 150 305 180 325C210 345 240 371 270 395C300 419 330 441 360 428C390 415 420 367 450 343C480 319 510 319 540 340C570 361 600 403 630 430C660 457 690 469 720 467C750 465 780 449 810 432C840 415 870 397 885 388L900 379L900 149L885 144C870 139 840 129 810 134C780 139 750 159 720 160C690 161 660 143 630 129C600 115 570 105 540 106C510 107 480 119 450 126C420 133 390 135 360 149C330 163 300 189 270 197C240 205 210 195 180 173C150 151 120 117 90 103C60 89 30 95 15 98L0 101Z" fill="#954fff"></path><path d="M0 601L15 601C30 601 60 601 90 601C120 601 150 601 180 601C210 601 240 601 270 601C300 601 330 601 360 601C390 601 420 601 450 601C480 601 510 601 540 601C570 601 600 601 630 601C660 601 690 601 720 601C750 601 780 601 810 601C840 601 870 601 885 601L900 601L900 377L885 386C870 395 840 413 810 430C780 447 750 463 720 465C690 467 660 455 630 428C600 401 570 359 540 338C510 317 480 317 450 341C420 365 390 413 360 426C330 439 300 417 270 393C240 369 210 343 180 323C150 303 120 289 90 316C60 343 30 411 15 445L0 479Z" fill="#ffffff"></path></svg>