<svg id="visual" viewBox="0 0 900 450" width="900" height="450" xmlns="http://www.w3.org/2000/svg" xmlns:xlink="http://www.w3.org/1999/xlink" version="1.1"><path d="M0 105L13.7 115.5C27.3 126 54.7 147 82 159.7C109.3 172.3 136.7 176.7 163.8 167.7C191 158.7 218 136.3 245.2 127.3C272.3 118.3 299.7 122.7 327 116.7C354.3 110.7 381.7 94.3 409 100.3C436.3 106.3 463.7 134.7 491 154.8C518.3 175 545.7 187 573 198.3C600.3 209.7 627.7 220.3 654.8 212.2C682 204 709 177 736.2 156C763.3 135 790.7 120 818 123.7C845.3 127.3 872.7 149.7 886.3 160.8L900 172L900 0L886.3 0C872.7 0 845.3 0 818 0C790.7 0 763.3 0 736.2 0C709 0 682 0 654.8 0C627.7 0 600.3 0 573 0C545.7 0 518.3 0 491 0C463.7 0 436.3 0 409 0C381.7 0 354.3 0 327 0C299.7 0 272.3 0 245.2 0C218 0 191 0 163.8 0C136.7 0 109.3 0 82 0C54.7 0 27.3 0 13.7 0L0 0Z" fill="#6600ff"></path><path d="M0 186L13.7 192C27.3 198 54.7 210 82 223.5C109.3 237 136.7 252 163.8 249.7C191 247.3 218 227.7 245.2 211.2C272.3 194.7 299.7 181.3 327 167.8C354.3 154.3 381.7 140.7 409 147.3C436.3 154 463.7 181 491 201.3C518.3 221.7 545.7 235.3 573 243.7C600.3 252 627.7 255 654.8 244.5C682 234 709 210 736.2 195.7C763.3 181.3 790.7 176.7 818 181.2C845.3 185.7 872.7 199.3 886.3 206.2L900 213L900 170L886.3 158.8C872.7 147.7 845.3 125.3 818 121.7C790.7 118 763.3 133 736.2 154C709 175 682 202 654.8 210.2C627.7 218.3 600.3 207.7 573 196.3C545.7 185 518.3 173 491 152.8C463.7 132.7 436.3 104.3 409 98.3C381.7 92.3 354.3 108.7 327 114.7C299.7 120.7 272.3 116.3 245.2 125.3C218 134.3 191 156.7 163.8 165.7C136.7 174.7 109.3 170.3 82 157.7C54.7 145 27.3 124 13.7 113.5L0 103Z" fill="#d4acff"></path><path d="M0 276L13.7 282C27.3 288 54.7 300 82 314.2C109.3 328.3 136.7 344.7 163.8 339.3C191 334 218 307 245.2 292.8C272.3 278.7 299.7 277.3 327 260.8C354.3 244.3 381.7 212.7 409 208.2C436.3 203.7 463.7 226.3 491 245.8C518.3 265.3 545.7 281.7 573 289.8C600.3 298 627.7 298 654.8 296.5C682 295 709 292 736.2 280.8C763.3 269.7 790.7 250.3 818 260.2C845.3 270 872.7 309 886.3 328.5L900 348L900 211L886.3 204.2C872.7 197.3 845.3 183.7 818 179.2C790.7 174.7 763.3 179.3 736.2 193.7C709 208 682 232 654.8 242.5C627.7 253 600.3 250 573 241.7C545.7 233.3 518.3 219.7 491 199.3C463.7 179 436.3 152 409 145.3C381.7 138.7 354.3 152.3 327 165.8C299.7 179.3 272.3 192.7 245.2 209.2C218 225.7 191 245.3 163.8 247.7C136.7 250 109.3 235 82 221.5C54.7 208 27.3 196 13.7 190L0 184Z" fill="#ffffff"></path><path d="M0 325L13.7 329.5C27.3 334 54.7 343 82 354.3C109.3 365.7 136.7 379.3 163.8 372.7C191 366 218 339 245.2 330C272.3 321 299.7 330 327 321C354.3 312 381.7 285 409 282.7C436.3 280.3 463.7 302.7 491 313.8C518.3 325 545.7 325 573 333.3C600.3 341.7 627.7 358.3 654.8 361.3C682 364.3 709 353.7 736.2 334.8C763.3 316 790.7 289 818 294.3C845.3 299.7 872.7 337.3 886.3 356.2L900 375L900 346L886.3 326.5C872.7 307 845.3 268 818 258.2C790.7 248.3 763.3 267.7 736.2 278.8C709 290 682 293 654.8 294.5C627.7 296 600.3 296 573 287.8C545.7 279.7 518.3 263.3 491 243.8C463.7 224.3 436.3 201.7 409 206.2C381.7 210.7 354.3 242.3 327 258.8C299.7 275.3 272.3 276.7 245.2 290.8C218 305 191 332 163.8 337.3C136.7 342.7 109.3 326.3 82 312.2C54.7 298 27.3 286 13.7 280L0 274Z" fill="#d4acff"></path><path d="M0 451L13.7 451C27.3 451 54.7 451 82 451C109.3 451 136.7 451 163.8 451C191 451 218 451 245.2 451C272.3 451 299.7 451 327 451C354.3 451 381.7 451 409 451C436.3 451 463.7 451 491 451C518.3 451 545.7 451 573 451C600.3 451 627.7 451 654.8 451C682 451 709 451 736.2 451C763.3 451 790.7 451 818 451C845.3 451 872.7 451 886.3 451L900 451L900 373L886.3 354.2C872.7 335.3 845.3 297.7 818 292.3C790.7 287 763.3 314 736.2 332.8C709 351.7 682 362.3 654.8 359.3C627.7 356.3 600.3 339.7 573 331.3C545.7 323 518.3 323 491 311.8C463.7 300.7 436.3 278.3 409 280.7C381.7 283 354.3 310 327 319C299.7 328 272.3 319 245.2 328C218 337 191 364 163.8 370.7C136.7 377.3 109.3 363.7 82 352.3C54.7 341 27.3 332 13.7 327.5L0 323Z" fill="#6600ff"></path></svg>