<svg id="visual" viewBox="0 0 900 675" width="900" height="675" xmlns="http://www.w3.org/2000/svg" xmlns:xlink="http://www.w3.org/1999/xlink" version="1.1"><path d="M0 123L13.7 121.8C27.3 120.7 54.7 118.3 82 117.2C109.3 116 136.7 116 163.8 110.3C191 104.7 218 93.3 245.2 88.8C272.3 84.3 299.7 86.7 327 94.5C354.3 102.3 381.7 115.7 409 120.2C436.3 124.7 463.7 120.3 491 126C518.3 131.7 545.7 147.3 573 139.5C600.3 131.7 627.7 100.3 654.8 91.3C682 82.3 709 95.7 736.2 95.7C763.3 95.7 790.7 82.3 818 86.8C845.3 91.3 872.7 113.7 886.3 124.8L900 136L900 0L886.3 0C872.7 0 845.3 0 818 0C790.7 0 763.3 0 736.2 0C709 0 682 0 654.8 0C627.7 0 600.3 0 573 0C545.7 0 518.3 0 491 0C463.7 0 436.3 0 409 0C381.7 0 354.3 0 327 0C299.7 0 272.3 0 245.2 0C218 0 191 0 163.8 0C136.7 0 109.3 0 82 0C54.7 0 27.3 0 13.7 0L0 0Z" fill="#6600ff"></path><path d="M0 163L13.7 158.5C27.3 154 54.7 145 82 147.3C109.3 149.7 136.7 163.3 163.8 160C191 156.7 218 136.3 245.2 129.5C272.3 122.7 299.7 129.3 327 137.2C354.3 145 381.7 154 409 154C436.3 154 463.7 145 491 149.5C518.3 154 545.7 172 573 166.3C600.3 160.7 627.7 131.3 654.8 128C682 124.7 709 147.3 736.2 150.8C763.3 154.3 790.7 138.7 818 139.8C845.3 141 872.7 159 886.3 168L900 177L900 134L886.3 122.8C872.7 111.7 845.3 89.3 818 84.8C790.7 80.3 763.3 93.7 736.2 93.7C709 93.7 682 80.3 654.8 89.3C627.7 98.3 600.3 129.7 573 137.5C545.7 145.3 518.3 129.7 491 124C463.7 118.3 436.3 122.7 409 118.2C381.7 113.7 354.3 100.3 327 92.5C299.7 84.7 272.3 82.3 245.2 86.8C218 91.3 191 102.7 163.8 108.3C136.7 114 109.3 114 82 115.2C54.7 116.3 27.3 118.7 13.7 119.8L0 121Z" fill="#ae71ff"></path><path d="M0 190L13.7 185.5C27.3 181 54.7 172 82 177.7C109.3 183.3 136.7 203.7 163.8 207C191 210.3 218 196.7 245.2 189.8C272.3 183 299.7 183 327 188.7C354.3 194.3 381.7 205.7 409 208C436.3 210.3 463.7 203.7 491 207C518.3 210.3 545.7 223.7 573 219.2C600.3 214.7 627.7 192.3 654.8 189C682 185.7 709 201.3 736.2 203.5C763.3 205.7 790.7 194.3 818 195.5C845.3 196.7 872.7 210.3 886.3 217.2L900 224L900 175L886.3 166C872.7 157 845.3 139 818 137.8C790.7 136.7 763.3 152.3 736.2 148.8C709 145.3 682 122.7 654.8 126C627.7 129.3 600.3 158.7 573 164.3C545.7 170 518.3 152 491 147.5C463.7 143 436.3 152 409 152C381.7 152 354.3 143 327 135.2C299.7 127.3 272.3 120.7 245.2 127.5C218 134.3 191 154.7 163.8 158C136.7 161.3 109.3 147.7 82 145.3C54.7 143 27.3 152 13.7 156.5L0 161Z" fill="#dfc0ff"></path><path d="M0 258L13.7 247.8C27.3 237.7 54.7 217.3 82 224C109.3 230.7 136.7 264.3 163.8 272.2C191 280 218 262 245.2 257.5C272.3 253 299.7 262 327 263.2C354.3 264.3 381.7 257.7 409 260C436.3 262.3 463.7 273.7 491 277C518.3 280.3 545.7 275.7 573 267.7C600.3 259.7 627.7 248.3 654.8 243.8C682 239.3 709 241.7 736.2 238.3C763.3 235 790.7 226 818 231.7C845.3 237.3 872.7 257.7 886.3 267.8L900 278L900 222L886.3 215.2C872.7 208.3 845.3 194.7 818 193.5C790.7 192.3 763.3 203.7 736.2 201.5C709 199.3 682 183.7 654.8 187C627.7 190.3 600.3 212.7 573 217.2C545.7 221.7 518.3 208.3 491 205C463.7 201.7 436.3 208.3 409 206C381.7 203.7 354.3 192.3 327 186.7C299.7 181 272.3 181 245.2 187.8C218 194.7 191 208.3 163.8 205C136.7 201.7 109.3 181.3 82 175.7C54.7 170 27.3 179 13.7 183.5L0 188Z" fill="#ffffff"></path><path d="M0 312L13.7 306.3C27.3 300.7 54.7 289.3 82 292.7C109.3 296 136.7 314 163.8 318.5C191 323 218 314 245.2 309.5C272.3 305 299.7 305 327 300.5C354.3 296 381.7 287 409 294.8C436.3 302.7 463.7 327.3 491 337.5C518.3 347.7 545.7 343.3 573 329.8C600.3 316.3 627.7 293.7 654.8 290.2C682 286.7 709 302.3 736.2 302.3C763.3 302.3 790.7 286.7 818 286.7C845.3 286.7 872.7 302.3 886.3 310.2L900 318L900 276L886.3 265.8C872.7 255.7 845.3 235.3 818 229.7C790.7 224 763.3 233 736.2 236.3C709 239.7 682 237.3 654.8 241.8C627.7 246.3 600.3 257.7 573 265.7C545.7 273.7 518.3 278.3 491 275C463.7 271.7 436.3 260.3 409 258C381.7 255.7 354.3 262.3 327 261.2C299.7 260 272.3 251 245.2 255.5C218 260 191 278 163.8 270.2C136.7 262.3 109.3 228.7 82 222C54.7 215.3 27.3 235.7 13.7 245.8L0 256Z" fill="#ffffff"></path><path d="M0 420L13.7 414.3C27.3 408.7 54.7 397.3 82 396.2C109.3 395 136.7 404 163.8 402.8C191 401.7 218 390.3 245.2 383.5C272.3 376.7 299.7 374.3 327 377.7C354.3 381 381.7 390 409 400.2C436.3 410.3 463.7 421.7 491 418.3C518.3 415 545.7 397 573 388C600.3 379 627.7 379 654.8 383.5C682 388 709 397 736.2 393.7C763.3 390.3 790.7 374.7 818 378C845.3 381.3 872.7 403.7 886.3 414.8L900 426L900 316L886.3 308.2C872.7 300.3 845.3 284.7 818 284.7C790.7 284.7 763.3 300.3 736.2 300.3C709 300.3 682 284.7 654.8 288.2C627.7 291.7 600.3 314.3 573 327.8C545.7 341.3 518.3 345.7 491 335.5C463.7 325.3 436.3 300.7 409 292.8C381.7 285 354.3 294 327 298.5C299.7 303 272.3 303 245.2 307.5C218 312 191 321 163.8 316.5C136.7 312 109.3 294 82 290.7C54.7 287.3 27.3 298.7 13.7 304.3L0 310Z" fill="#dfc0ff"></path><path d="M0 555L13.7 561.7C27.3 568.3 54.7 581.7 82 589.5C109.3 597.3 136.7 599.7 163.8 595.2C191 590.7 218 579.3 245.2 563.5C272.3 547.7 299.7 527.3 327 516.2C354.3 505 381.7 503 409 504.2C436.3 505.3 463.7 509.7 491 524.2C518.3 538.7 545.7 563.3 573 572.3C600.3 581.3 627.7 574.7 654.8 575.8C682 577 709 586 736.2 588.3C763.3 590.7 790.7 586.3 818 585.2C845.3 584 872.7 586 886.3 587L900 588L900 424L886.3 412.8C872.7 401.7 845.3 379.3 818 376C790.7 372.7 763.3 388.3 736.2 391.7C709 395 682 386 654.8 381.5C627.7 377 600.3 377 573 386C545.7 395 518.3 413 491 416.3C463.7 419.7 436.3 408.3 409 398.2C381.7 388 354.3 379 327 375.7C299.7 372.3 272.3 374.7 245.2 381.5C218 388.3 191 399.7 163.8 400.8C136.7 402 109.3 393 82 394.2C54.7 395.3 27.3 406.7 13.7 412.3L0 418Z" fill="#ae71ff"></path><path d="M0 676L13.7 676C27.3 676 54.7 676 82 676C109.3 676 136.7 676 163.8 676C191 676 218 676 245.2 676C272.3 676 299.7 676 327 676C354.3 676 381.7 676 409 676C436.3 676 463.7 676 491 676C518.3 676 545.7 676 573 676C600.3 676 627.7 676 654.8 676C682 676 709 676 736.2 676C763.3 676 790.7 676 818 676C845.3 676 872.7 676 886.3 676L900 676L900 586L886.3 585C872.7 584 845.3 582 818 583.2C790.7 584.3 763.3 588.7 736.2 586.3C709 584 682 575 654.8 573.8C627.7 572.7 600.3 579.3 573 570.3C545.7 561.3 518.3 536.7 491 522.2C463.7 507.7 436.3 503.3 409 502.2C381.7 501 354.3 503 327 514.2C299.7 525.3 272.3 545.7 245.2 561.5C218 577.3 191 588.7 163.8 593.2C136.7 597.7 109.3 595.3 82 587.5C54.7 579.7 27.3 566.3 13.7 559.7L0 553Z" fill="#6600ff"></path></svg>